<svg width="228" height="64" viewBox="0 0 228 64" fill="none" xmlns="http://www.w3.org/2000/svg">
<path d="M52.3479 4C56.1588 4 57.3563 6.73337 58.3609 9.46247C58.7829 10.6214 68.6861 37.741 68.9838 38.555C69.0631 38.782 69.0096 39.1548 68.6604 39.2897C68.3091 39.4225 63.1636 41.4233 62.8787 41.5304C62.5938 41.6397 62.2746 41.4811 62.1718 41.1962C62.0647 40.9156 59.929 35.0033 59.6891 34.3435H45.0111C44.7797 35.0033 42.6183 40.9285 42.5219 41.1962C42.4234 41.4683 42.117 41.6525 41.8129 41.5304C41.5087 41.4105 36.344 39.4097 36.0355 39.2897C35.7399 39.1741 35.6049 38.8377 35.7077 38.555C36.0719 37.5396 45.8251 10.8549 46.3221 9.46247C47.2903 6.77408 48.5285 4 52.3479 4ZM34.9237 52.526C34.6152 52.526 34.3689 52.7831 34.3689 53.0959V59.4345C34.3689 59.7472 34.6152 60 34.9237 60H69.7572C70.0721 60 70.3184 59.7472 70.3184 59.4345V53.0959C70.3184 52.7831 70.0721 52.526 69.7572 52.526H34.9237ZM52.3137 12.8556L47.3524 27.7543H57.3563L52.3779 12.8556H52.3137ZM126.76 37.2847C126.029 37.531 125.547 37.591 124.973 37.591C123.786 37.591 123.129 37.1219 123.129 35.9051C123.129 34.637 123.964 34.2128 125.605 34.2128C126.006 34.2128 126.4 34.2707 126.584 34.3349V35.2432C126.584 36.2222 126.638 36.8648 126.76 37.2847ZM130.978 38.737C130.101 37.4068 129.872 36.6228 129.872 34.9455V31.5394C129.872 29.7058 129.658 29.0438 129.174 28.3755C128.499 27.4287 127.374 27.0174 125.307 27.0174C123.844 27.0174 122.424 27.1759 121.049 27.5272L121.546 29.9478C122.475 29.8172 123.45 29.7058 124.138 29.7058C126.333 29.7058 126.584 30.0228 126.584 31.6701V32.2849C126.096 32.1542 125.547 32.06 124.911 32.06C121.606 32.06 119.86 33.6773 119.86 36.355C119.86 38.8656 121.726 40.2344 123.998 40.2344C124.847 40.2344 125.734 40.078 126.436 39.791C126.86 39.6068 127.045 39.4975 127.593 39.1419C127.923 39.6218 128.585 40.1123 128.855 40.2044L130.978 38.737ZM163.673 37.2847C162.938 37.531 162.465 37.591 161.887 37.591C160.696 37.591 160.029 37.1219 160.029 35.9051C160.029 34.637 160.876 34.2128 162.521 34.2128C162.921 34.2128 163.318 34.2707 163.498 34.3349V35.2432C163.498 36.2222 163.549 36.8648 163.673 37.2847ZM167.895 38.737C167.013 37.4068 166.788 36.6228 166.788 34.9455V31.5394C166.788 29.7058 166.569 29.0438 166.081 28.3755C165.415 27.4287 164.288 27.0174 162.214 27.0174C160.753 27.0174 159.325 27.1759 157.949 27.5272L158.44 29.9478C159.372 29.8172 160.349 29.7058 161.055 29.7058C163.238 29.7058 163.498 30.0228 163.498 31.6701V32.2849C163.009 32.1542 162.465 32.06 161.816 32.06C158.506 32.06 156.754 33.6773 156.754 36.355C156.754 38.8656 158.624 40.2344 160.908 40.2344C161.767 40.2344 162.645 40.078 163.341 39.791C163.772 39.6068 163.95 39.4975 164.498 39.1419C164.832 39.6218 165.494 40.1123 165.766 40.2044L167.895 38.737ZM193.631 39.9495C193.631 39.9495 191.819 36.0872 191.375 35.2089C190.876 34.2193 190.414 33.5359 189.394 33.2896V33.2339C190.077 33.1032 190.621 32.6898 191.217 31.4259C191.78 30.1942 191.947 29.9285 192.279 29.6351C192.605 29.3437 193.051 29.4487 193.051 29.4487L193.218 27.1716C192.744 27.1073 192.219 27.1052 191.677 27.1352C190.778 27.1887 190.313 27.4479 189.869 27.8935C189.522 28.2341 189.287 28.7439 188.995 29.3287C188.687 29.9671 188.443 30.4812 188.121 31.1303C187.802 31.7965 187.652 32.0964 186.793 32.0964H186.234V22.009H182.925V39.9495H186.234V34.7912L186.686 34.7826C187.635 34.7826 187.802 35.0204 188.304 36.0208C188.891 37.214 190.015 39.9495 190.015 39.9495H193.631ZM100.396 39.9495H104.216L98.4384 22.3089C97.83 22.1054 97.0781 21.979 96.2748 21.979C95.3987 21.979 95.0859 22.0947 94.4004 22.3089L88.2867 39.9495H91.9519C91.9519 39.9495 92.4468 38.4029 93.0294 36.4857H99.3616C99.9272 38.4007 100.396 39.9495 100.396 39.9495ZM93.9591 33.5273C93.9591 33.5273 95.0174 29.9864 95.1823 29.4358C95.6022 28.0092 96.2405 25.7428 96.2405 25.7428H96.3455C96.3455 25.7428 96.9367 28.0906 97.3223 29.4101C97.468 29.935 98.4791 33.5273 98.4791 33.5273H93.9591ZM136.616 31.5094C135.448 31.5094 134.499 32.4627 134.499 33.6302C134.499 34.8062 135.448 35.753 136.616 35.753C137.785 35.753 138.73 34.8062 138.73 33.6302C138.73 32.4627 137.785 31.5094 136.616 31.5094ZM108.751 22.009H105.432V39.9474H108.751V22.009ZM174.675 29.8686C176.509 29.9071 176.736 30.2863 176.736 31.8243V39.9495H180.024V31.5394C180.024 29.7058 179.81 29.0438 179.322 28.3755C178.647 27.4287 177.321 27.0174 175.078 27.0174C172.859 27.0174 171.445 27.253 169.626 27.795V39.9495H172.949V30.0228C173.821 29.8964 173.975 29.8686 174.675 29.8686ZM116.957 21.6898C114.884 21.6898 113.755 22.1011 113.091 23.0458C112.602 23.7163 112.386 24.3932 112.386 26.2312V27.795H110.739V30.4769H112.386V39.9495H115.676L115.668 30.4769H118.947V27.795H115.668L115.676 26.3576C115.676 24.7124 115.927 24.3932 118.125 24.3932C118.362 24.3932 118.63 24.4061 118.915 24.4275L119.434 21.8505C118.622 21.7434 117.791 21.6898 116.957 21.6898ZM143.357 21.8569C144.486 21.7905 147.009 21.6963 148.592 21.6963C148.882 21.6963 149.182 21.6984 149.481 21.7134C152.594 21.7134 154.378 23.9798 154.378 26.6403C154.378 28.4505 153.549 29.6522 151.606 30.3677C153.892 30.8732 155.09 32.6576 155.09 34.8405C155.09 36.4428 154.638 37.7152 153.809 38.5828C152.733 39.641 151.105 40.2344 148.937 40.2344C147.009 40.2344 144.589 40.1744 143.357 40.1016V21.8569ZM148.592 24.796C148.044 24.796 147.365 24.8067 146.692 24.8302V29.1381H148.595C149.349 29.1381 149.955 28.9282 150.368 28.5233C150.762 28.142 150.968 27.6022 150.968 26.9617C150.968 25.5843 150.223 24.8045 148.837 24.796H148.592ZM148.661 37.1412H148.805C150.533 37.1412 151.591 36.2222 151.604 34.3714C151.587 33.7073 151.332 33.0946 150.876 32.6512C150.377 32.1499 149.67 31.8886 148.841 31.8886H146.692V37.1219C147.299 37.1347 147.967 37.1369 148.661 37.1412Z" fill="white"/>
</svg>
