<svg width="228" height="64" viewBox="0 0 228 64" fill="none" xmlns="http://www.w3.org/2000/svg">
<path fill-rule="evenodd" clip-rule="evenodd" d="M52.6151 14.8151L71.3546 20.6134C78.5395 27.042 79.2538 33.9742 72.0689 41.4112L53.7922 48.1345C64.0023 37.0426 62.9513 25.9076 52.6151 14.8151Z" fill="white"/>
<path fill-rule="evenodd" clip-rule="evenodd" d="M36.6493 12C44.0863 12 50.6829 16.2437 54.0863 22.4622C51.9014 24.2689 50.4728 27.4202 50.4728 30.907C50.4728 34.8151 52.2796 38.2611 54.8426 39.8566C51.7754 46.9994 44.716 52 36.6493 52C25.7249 52 16.8174 43.0084 16.8174 31.958C16.8174 20.9496 25.7244 12 36.6493 12Z" fill="white"/>
<path d="M87.2406 15.3004H89.0702V18.6332L92.3215 15.3004H94.6055L91.0163 18.7847L94.9202 23.6208H92.6245L89.6878 19.9268L89.0702 20.591V23.6208H87.2406V15.3004Z" fill="white"/>
<path d="M98.3891 15.3004H100.265L103.377 23.6208H101.477L100.848 21.768H97.7365L97.0839 23.6208H95.2427L98.3891 15.3004ZM100.37 20.4045L99.3214 17.3514H99.298L98.2143 20.4045H100.37Z" fill="white"/>
<path d="M108.289 23.8073C107.645 23.8073 107.07 23.6985 106.565 23.481C106.06 23.2557 105.632 22.9488 105.283 22.5604C104.933 22.1719 104.665 21.7175 104.479 21.197C104.292 20.6687 104.199 20.1015 104.199 19.4956C104.199 18.8818 104.292 18.3069 104.479 17.7709C104.665 17.2348 104.933 16.7687 105.283 16.3725C105.632 15.9763 106.06 15.6655 106.565 15.4402C107.07 15.2149 107.645 15.1023 108.289 15.1023C108.74 15.1023 109.171 15.1683 109.583 15.3004C109.995 15.4325 110.36 15.6267 110.678 15.8831C111.005 16.1317 111.273 16.4424 111.482 16.8153C111.692 17.1882 111.824 17.6155 111.879 18.0972H110.107C110.076 17.8874 110.006 17.6971 109.898 17.5262C109.789 17.3475 109.653 17.1921 109.49 17.06C109.327 16.928 109.14 16.827 108.93 16.7571C108.728 16.6794 108.515 16.6405 108.289 16.6405C107.878 16.6405 107.528 16.7221 107.241 16.8852C106.953 17.0406 106.72 17.2543 106.541 17.5262C106.363 17.7903 106.231 18.0933 106.145 18.4351C106.067 18.777 106.029 19.1304 106.029 19.4956C106.029 19.8452 106.067 20.187 106.145 20.5211C106.231 20.8474 106.363 21.1426 106.541 21.4067C106.72 21.6709 106.953 21.8845 107.241 22.0476C107.528 22.203 107.878 22.2807 108.289 22.2807C108.849 22.2807 109.284 22.1098 109.595 21.768C109.913 21.4261 110.107 20.9755 110.177 20.4162H111.948C111.902 20.9445 111.781 21.4184 111.587 21.8379C111.393 22.2496 111.137 22.6031 110.818 22.8983C110.5 23.1936 110.127 23.4188 109.699 23.5742C109.272 23.7296 108.802 23.8073 108.289 23.8073Z" fill="white"/>
<path d="M113.664 15.3004H120.586V23.6208H118.756V16.8386H115.494V23.6208H113.664V15.3004Z" fill="white"/>
<path d="M122.665 15.3004H124.483V21.0688H124.518L127.688 15.3004H129.739V23.6208H127.921V17.8408H127.886L124.716 23.6208H122.665V15.3004Z" fill="white"/>
<path d="M131.814 15.3004H133.632V21.0688H133.667L136.837 15.3004H138.888V23.6208H137.07V17.8408H137.035L133.865 23.6208H131.814V15.3004ZM135.462 14.5896C133.962 14.5896 133.213 13.9914 133.213 12.7949H134.565C134.572 13.0358 134.642 13.2339 134.774 13.3893C134.906 13.5446 135.136 13.6223 135.462 13.6223C135.788 13.6223 136.021 13.5485 136.161 13.4009C136.301 13.2455 136.367 13.0436 136.359 12.7949H137.711C137.711 13.9914 136.961 14.5896 135.462 14.5896Z" fill="white"/>
<path d="M144.693 23.8073C144.048 23.8073 143.473 23.6985 142.968 23.481C142.463 23.2557 142.036 22.9488 141.686 22.5604C141.336 22.1719 141.068 21.7175 140.882 21.197C140.696 20.6687 140.602 20.1015 140.602 19.4956C140.602 18.8818 140.696 18.3069 140.882 17.7709C141.068 17.2348 141.336 16.7687 141.686 16.3725C142.036 15.9763 142.463 15.6655 142.968 15.4402C143.473 15.2149 144.048 15.1023 144.693 15.1023C145.143 15.1023 145.574 15.1683 145.986 15.3004C146.398 15.4325 146.763 15.6267 147.082 15.8831C147.408 16.1317 147.676 16.4424 147.886 16.8153C148.095 17.1882 148.227 17.6155 148.282 18.0972H146.511C146.479 17.8874 146.41 17.6971 146.301 17.5262C146.192 17.3475 146.056 17.1921 145.893 17.06C145.73 16.928 145.543 16.827 145.334 16.7571C145.132 16.6794 144.918 16.6405 144.693 16.6405C144.281 16.6405 143.931 16.7221 143.644 16.8852C143.356 17.0406 143.123 17.2543 142.945 17.5262C142.766 17.7903 142.634 18.0933 142.548 18.4351C142.471 18.777 142.432 19.1304 142.432 19.4956C142.432 19.8452 142.471 20.187 142.548 20.5211C142.634 20.8474 142.766 21.1426 142.945 21.4067C143.123 21.6709 143.356 21.8845 143.644 22.0476C143.931 22.203 144.281 22.2807 144.693 22.2807C145.252 22.2807 145.687 22.1098 145.998 21.768C146.316 21.4261 146.511 20.9755 146.58 20.4162H148.352C148.305 20.9445 148.185 21.4184 147.991 21.8379C147.796 22.2496 147.54 22.6031 147.221 22.8983C146.903 23.1936 146.53 23.4188 146.103 23.5742C145.675 23.7296 145.205 23.8073 144.693 23.8073Z" fill="white"/>
<path d="M150.067 15.3004H151.897V18.6332L155.148 15.3004H157.432L153.843 18.7847L157.747 23.6208H155.451L152.514 19.9268L151.897 20.591V23.6208H150.067V15.3004Z" fill="white"/>
<path d="M158.943 15.3004H160.761V21.0688H160.796L163.966 15.3004H166.017V23.6208H164.199V17.8408H164.164L160.994 23.6208H158.943V15.3004Z" fill="white"/>
<path d="M168.092 15.3004H169.91V21.0688H169.945L173.115 15.3004H175.166V23.6208H173.348V17.8408H173.313L170.143 23.6208H168.092V15.3004ZM171.74 14.5896C170.241 14.5896 169.491 13.9914 169.491 12.7949H170.843C170.85 13.0358 170.92 13.2339 171.052 13.3893C171.184 13.5446 171.414 13.6223 171.74 13.6223C172.066 13.6223 172.299 13.5485 172.439 13.4009C172.579 13.2455 172.645 13.0436 172.637 12.7949H173.989C173.989 13.9914 173.239 14.5896 171.74 14.5896Z" fill="white"/>
<path d="M89.0819 29.6572H86.5881V28.119H93.4052V29.6572H90.9114V36.4394H89.0819V29.6572Z" fill="white"/>
<path d="M94.8307 28.119H98.5831C99.1036 28.119 99.5464 28.1967 99.9116 28.3521C100.277 28.4997 100.572 28.6978 100.797 28.9464C101.03 29.195 101.197 29.4824 101.298 29.8087C101.407 30.1272 101.461 30.4535 101.461 30.7876C101.461 31.1294 101.407 31.4596 101.298 31.7781C101.197 32.0966 101.03 32.3802 100.797 32.6288C100.572 32.8774 100.277 33.0794 99.9116 33.2348C99.5464 33.3824 99.1036 33.4562 98.5831 33.4562H96.6603V36.4394H94.8307V28.119ZM98.082 32.0345C98.2918 32.0345 98.4938 32.019 98.688 31.9879C98.8822 31.9568 99.0531 31.8985 99.2007 31.8131C99.3483 31.7199 99.4649 31.5917 99.5503 31.4285C99.6435 31.2654 99.6902 31.0517 99.6902 30.7876C99.6902 30.5235 99.6435 30.3098 99.5503 30.1467C99.4649 29.9835 99.3483 29.8592 99.2007 29.7738C99.0531 29.6805 98.8822 29.6184 98.688 29.5873C98.4938 29.5562 98.2918 29.5407 98.082 29.5407H96.6603V32.0345H98.082Z" fill="white"/>
<path d="M104.678 36.5909C104.476 36.5909 104.293 36.5637 104.13 36.5094C103.975 36.455 103.858 36.4045 103.78 36.3579V34.8779C103.866 34.9245 103.967 34.9672 104.083 35.0061C104.208 35.0372 104.359 35.0527 104.538 35.0527C105.089 35.0527 105.423 34.8235 105.54 34.3652L102.207 28.119H104.258L106.519 32.454L108.209 28.119H110.12L107.521 34.2253C107.335 34.6526 107.144 35.0177 106.95 35.3207C106.764 35.6159 106.554 35.8607 106.321 36.0549C106.095 36.2413 105.847 36.3773 105.575 36.4627C105.311 36.5482 105.012 36.5909 104.678 36.5909Z" fill="white"/>
<path d="M111.081 28.119H117.257V29.6223H112.91V31.1955H115.078C115.497 31.1955 115.886 31.246 116.243 31.347C116.6 31.448 116.911 31.6072 117.175 31.8247C117.439 32.0345 117.645 32.3064 117.793 32.6405C117.948 32.9668 118.026 33.3552 118.026 33.8058C118.026 34.2642 117.952 34.6604 117.805 34.9944C117.657 35.3207 117.447 35.5926 117.175 35.8102C116.911 36.0277 116.593 36.1869 116.22 36.2879C115.847 36.3889 115.435 36.4394 114.985 36.4394H111.081V28.119ZM114.786 34.9478C115.229 34.9478 115.575 34.8662 115.824 34.7031C116.072 34.5322 116.196 34.2253 116.196 33.7825C116.196 33.565 116.162 33.3824 116.092 33.2348C116.022 33.0872 115.921 32.9706 115.789 32.8852C115.664 32.792 115.513 32.7259 115.334 32.6871C115.163 32.6482 114.977 32.6288 114.775 32.6288H112.91V34.9478H114.786Z" fill="white"/>
<path d="M123.458 36.6259C122.813 36.6259 122.238 36.5171 121.734 36.2996C121.229 36.0743 120.801 35.7674 120.452 35.379C120.102 34.9905 119.834 34.5361 119.648 34.0156C119.461 33.4873 119.368 32.9201 119.368 32.3142C119.368 31.7004 119.461 31.1255 119.648 30.5895C119.834 30.0534 120.102 29.5873 120.452 29.1911C120.801 28.7949 121.229 28.4841 121.734 28.2588C122.238 28.0335 122.813 27.9209 123.458 27.9209C124.095 27.9209 124.666 28.0335 125.171 28.2588C125.684 28.4841 126.115 28.7949 126.465 29.1911C126.814 29.5873 127.082 30.0534 127.269 30.5895C127.455 31.1255 127.548 31.7004 127.548 32.3142C127.548 32.9201 127.455 33.4873 127.269 34.0156C127.082 34.5361 126.814 34.9905 126.465 35.379C126.115 35.7674 125.684 36.0743 125.171 36.2996C124.666 36.5171 124.095 36.6259 123.458 36.6259ZM123.458 35.0993C123.87 35.0993 124.22 35.0216 124.507 34.8662C124.794 34.7031 125.027 34.4895 125.206 34.2253C125.385 33.9612 125.513 33.666 125.591 33.3397C125.676 33.0056 125.719 32.6638 125.719 32.3142C125.719 31.949 125.676 31.5956 125.591 31.2537C125.513 30.9119 125.385 30.6089 125.206 30.3448C125.027 30.0729 124.794 29.8592 124.507 29.7038C124.22 29.5407 123.87 29.4591 123.458 29.4591C123.046 29.4591 122.697 29.5407 122.409 29.7038C122.122 29.8592 121.889 30.0729 121.71 30.3448C121.532 30.6089 121.399 30.9119 121.314 31.2537C121.236 31.5956 121.197 31.949 121.197 32.3142C121.197 32.6638 121.236 33.0056 121.314 33.3397C121.399 33.666 121.532 33.9612 121.71 34.2253C121.889 34.4895 122.122 34.7031 122.409 34.8662C122.697 35.0216 123.046 35.0993 123.458 35.0993Z" fill="white"/>
<path d="M129.265 28.119H136.187V36.4394H134.358V29.6572H131.095V36.4394H129.265V28.119Z" fill="white"/>
<path d="M138.267 28.119H142.019C142.539 28.119 142.982 28.1967 143.347 28.3521C143.712 28.4997 144.008 28.6978 144.233 28.9464C144.466 29.195 144.633 29.4824 144.734 29.8087C144.843 30.1272 144.897 30.4535 144.897 30.7876C144.897 31.1294 144.843 31.4596 144.734 31.7781C144.633 32.0966 144.466 32.3802 144.233 32.6288C144.008 32.8774 143.712 33.0794 143.347 33.2348C142.982 33.3824 142.539 33.4562 142.019 33.4562H140.096V36.4394H138.267V28.119ZM141.518 32.0345C141.728 32.0345 141.93 32.019 142.124 31.9879C142.318 31.9568 142.489 31.8985 142.636 31.8131C142.784 31.7199 142.901 31.5917 142.986 31.4285C143.079 31.2654 143.126 31.0517 143.126 30.7876C143.126 30.5235 143.079 30.3098 142.986 30.1467C142.901 29.9835 142.784 29.8592 142.636 29.7738C142.489 29.6805 142.318 29.6184 142.124 29.5873C141.93 29.5562 141.728 29.5407 141.518 29.5407H140.096V32.0345H141.518Z" fill="white"/>
<path d="M150.234 36.6259C149.59 36.6259 149.015 36.5171 148.51 36.2996C148.005 36.0743 147.577 35.7674 147.228 35.379C146.878 34.9905 146.61 34.5361 146.424 34.0156C146.237 33.4873 146.144 32.9201 146.144 32.3142C146.144 31.7004 146.237 31.1255 146.424 30.5895C146.61 30.0534 146.878 29.5873 147.228 29.1911C147.577 28.7949 148.005 28.4841 148.51 28.2588C149.015 28.0335 149.59 27.9209 150.234 27.9209C150.871 27.9209 151.442 28.0335 151.947 28.2588C152.46 28.4841 152.891 28.7949 153.241 29.1911C153.59 29.5873 153.858 30.0534 154.045 30.5895C154.231 31.1255 154.325 31.7004 154.325 32.3142C154.325 32.9201 154.231 33.4873 154.045 34.0156C153.858 34.5361 153.59 34.9905 153.241 35.379C152.891 35.7674 152.46 36.0743 151.947 36.2996C151.442 36.5171 150.871 36.6259 150.234 36.6259ZM150.234 35.0993C150.646 35.0993 150.996 35.0216 151.283 34.8662C151.571 34.7031 151.804 34.4895 151.982 34.2253C152.161 33.9612 152.289 33.666 152.367 33.3397C152.452 33.0056 152.495 32.6638 152.495 32.3142C152.495 31.949 152.452 31.5956 152.367 31.2537C152.289 30.9119 152.161 30.6089 151.982 30.3448C151.804 30.0729 151.571 29.8592 151.283 29.7038C150.996 29.5407 150.646 29.4591 150.234 29.4591C149.823 29.4591 149.473 29.5407 149.186 29.7038C148.898 29.8592 148.665 30.0729 148.486 30.3448C148.308 30.6089 148.176 30.9119 148.09 31.2537C148.012 31.5956 147.974 31.949 147.974 32.3142C147.974 32.6638 148.012 33.0056 148.09 33.3397C148.176 33.666 148.308 33.9612 148.486 34.2253C148.665 34.4895 148.898 34.7031 149.186 34.8662C149.473 35.0216 149.823 35.0993 150.234 35.0993Z" fill="white"/>
<path d="M156.041 28.119H159.957C160.353 28.119 160.714 28.154 161.041 28.2239C161.367 28.2938 161.647 28.4103 161.88 28.5735C162.113 28.7289 162.291 28.9386 162.416 29.2028C162.548 29.4669 162.614 29.7932 162.614 30.1816C162.614 30.6011 162.517 30.9507 162.322 31.2304C162.136 31.5101 161.856 31.7393 161.483 31.918C161.996 32.0656 162.377 32.3258 162.625 32.6987C162.882 33.0639 163.01 33.5067 163.01 34.0272C163.01 34.4467 162.928 34.8119 162.765 35.1226C162.602 35.4256 162.381 35.6742 162.101 35.8684C161.829 36.0626 161.515 36.2064 161.157 36.2996C160.808 36.3928 160.446 36.4394 160.073 36.4394H156.041V28.119ZM159.829 35.0177C160.007 35.0177 160.178 35.0022 160.341 34.9711C160.505 34.9323 160.648 34.874 160.773 34.7963C160.897 34.7109 160.994 34.5982 161.064 34.4584C161.142 34.3185 161.18 34.1399 161.18 33.9223C161.18 33.495 161.06 33.1921 160.819 33.0134C160.578 32.8269 160.26 32.7337 159.864 32.7337H157.871V35.0177H159.829ZM159.724 31.4868C160.05 31.4868 160.318 31.4091 160.528 31.2537C160.738 31.0984 160.843 30.8459 160.843 30.4963C160.843 30.302 160.808 30.1428 160.738 30.0185C160.668 29.8942 160.574 29.7971 160.458 29.7271C160.341 29.6572 160.205 29.6106 160.05 29.5873C159.902 29.5562 159.747 29.5407 159.584 29.5407H157.871V31.4868H159.724Z" fill="white"/>
<path d="M168.442 36.6259C167.797 36.6259 167.222 36.5171 166.717 36.2996C166.212 36.0743 165.785 35.7674 165.435 35.379C165.085 34.9905 164.817 34.5361 164.631 34.0156C164.445 33.4873 164.351 32.9201 164.351 32.3142C164.351 31.7004 164.445 31.1255 164.631 30.5895C164.817 30.0534 165.085 29.5873 165.435 29.1911C165.785 28.7949 166.212 28.4841 166.717 28.2588C167.222 28.0335 167.797 27.9209 168.442 27.9209C169.079 27.9209 169.65 28.0335 170.155 28.2588C170.667 28.4841 171.099 28.7949 171.448 29.1911C171.798 29.5873 172.066 30.0534 172.252 30.5895C172.439 31.1255 172.532 31.7004 172.532 32.3142C172.532 32.9201 172.439 33.4873 172.252 34.0156C172.066 34.5361 171.798 34.9905 171.448 35.379C171.099 35.7674 170.667 36.0743 170.155 36.2996C169.65 36.5171 169.079 36.6259 168.442 36.6259ZM168.442 35.0993C168.853 35.0993 169.203 35.0216 169.49 34.8662C169.778 34.7031 170.011 34.4895 170.19 34.2253C170.368 33.9612 170.496 33.666 170.574 33.3397C170.66 33.0056 170.702 32.6638 170.702 32.3142C170.702 31.949 170.66 31.5956 170.574 31.2537C170.496 30.9119 170.368 30.6089 170.19 30.3448C170.011 30.0729 169.778 29.8592 169.49 29.7038C169.203 29.5407 168.853 29.4591 168.442 29.4591C168.03 29.4591 167.68 29.5407 167.393 29.7038C167.105 29.8592 166.872 30.0729 166.694 30.3448C166.515 30.6089 166.383 30.9119 166.297 31.2537C166.22 31.5956 166.181 31.949 166.181 32.3142C166.181 32.6638 166.22 33.0056 166.297 33.3397C166.383 33.666 166.515 33.9612 166.694 34.2253C166.872 34.4895 167.105 34.7031 167.393 34.8662C167.68 35.0216 168.03 35.0993 168.442 35.0993Z" fill="white"/>
<path d="M173.538 34.9012H174.237C174.478 34.5749 174.672 34.2214 174.82 33.8408C174.975 33.4601 175.092 33.0444 175.169 32.5939C175.255 32.1433 175.309 31.6538 175.332 31.1255C175.364 30.5973 175.379 30.0263 175.379 29.4125V28.119H181.415V34.9012H182.324V38.3389H180.67V36.4394H175.193V38.3389H173.538V34.9012ZM179.586 34.9012V29.6223H177.127V29.7738C177.127 30.3409 177.112 30.8653 177.08 31.347C177.057 31.8286 177.011 32.2792 176.941 32.6987C176.878 33.1105 176.785 33.4989 176.661 33.8641C176.544 34.2214 176.393 34.5671 176.206 34.9012H179.586Z" fill="white"/>
<path d="M183.717 28.119H185.546V31.312H188.914V28.119H190.743V36.4394H188.914V32.8502H185.546V36.4394H183.717V28.119Z" fill="white"/>
<path d="M192.82 28.119H194.65V31.1255H196.374C196.794 31.1255 197.182 31.1799 197.54 31.2887C197.897 31.3897 198.208 31.5489 198.472 31.7665C198.736 31.984 198.942 32.2598 199.09 32.5939C199.245 32.9279 199.323 33.3202 199.323 33.7708C199.323 34.2292 199.249 34.6254 199.101 34.9595C198.954 35.2935 198.744 35.5732 198.472 35.7985C198.208 36.016 197.889 36.1792 197.516 36.2879C197.144 36.3889 196.732 36.4394 196.281 36.4394H192.82V28.119ZM196.141 34.9478C196.584 34.9478 196.93 34.8585 197.179 34.6798C197.427 34.5011 197.551 34.1904 197.551 33.7475C197.551 33.53 197.516 33.3474 197.447 33.1998C197.377 33.0444 197.276 32.9201 197.144 32.8269C197.019 32.7337 196.868 32.6677 196.689 32.6288C196.518 32.5822 196.332 32.5589 196.13 32.5589H194.65V34.9478H196.141ZM200.208 28.119H202.038V36.4394H200.208V28.119Z" fill="white"/>
<path d="M204.109 28.119H205.927V33.8874H205.962L209.131 28.119H211.182V36.4394H209.364V30.6594H209.329L206.16 36.4394H204.109V28.119ZM207.756 27.4082C206.257 27.4082 205.507 26.8099 205.507 25.6135H206.859C206.867 25.8544 206.937 26.0525 207.069 26.2079C207.201 26.3632 207.43 26.4409 207.756 26.4409C208.083 26.4409 208.316 26.3671 208.456 26.2195C208.595 26.0641 208.661 25.8622 208.654 25.6135H210.005C210.005 26.8099 209.256 27.4082 207.756 27.4082Z" fill="white"/>
<path d="M87.2406 40.9376H89.0702V44.2704L92.3215 40.9376H94.6055L91.0163 44.4219L94.9202 49.258H92.6245L89.6878 45.5639L89.0702 46.2282V49.258H87.2406V40.9376Z" fill="white"/>
<path d="M99.8458 49.4445C99.2009 49.4445 98.626 49.3357 98.1211 49.1182C97.6161 48.8929 97.1888 48.586 96.8392 48.1976C96.4896 47.8091 96.2216 47.3547 96.0351 46.8342C95.8487 46.3059 95.7555 45.7387 95.7555 45.1328C95.7555 44.519 95.8487 43.9441 96.0351 43.4081C96.2216 42.872 96.4896 42.4059 96.8392 42.0097C97.1888 41.6135 97.6161 41.3027 98.1211 41.0774C98.626 40.8521 99.2009 40.7395 99.8458 40.7395C100.483 40.7395 101.054 40.8521 101.559 41.0774C102.072 41.3027 102.503 41.6135 102.852 42.0097C103.202 42.4059 103.47 42.872 103.656 43.4081C103.843 43.9441 103.936 44.519 103.936 45.1328C103.936 45.7387 103.843 46.3059 103.656 46.8342C103.47 47.3547 103.202 47.8091 102.852 48.1976C102.503 48.586 102.072 48.8929 101.559 49.1182C101.054 49.3357 100.483 49.4445 99.8458 49.4445ZM99.8458 47.9179C100.257 47.9179 100.607 47.8402 100.895 47.6848C101.182 47.5217 101.415 47.3081 101.594 47.0439C101.772 46.7798 101.901 46.4846 101.978 46.1583C102.064 45.8242 102.106 45.4824 102.106 45.1328C102.106 44.7676 102.064 44.4142 101.978 44.0723C101.901 43.7305 101.772 43.4275 101.594 43.1634C101.415 42.8915 101.182 42.6778 100.895 42.5224C100.607 42.3593 100.257 42.2777 99.8458 42.2777C99.434 42.2777 99.0844 42.3593 98.797 42.5224C98.5095 42.6778 98.2764 42.8915 98.0978 43.1634C97.9191 43.4275 97.787 43.7305 97.7015 44.0723C97.6239 44.4142 97.585 44.7676 97.585 45.1328C97.585 45.4824 97.6239 45.8242 97.7015 46.1583C97.787 46.4846 97.9191 46.7798 98.0978 47.0439C98.2764 47.3081 98.5095 47.5217 98.797 47.6848C99.0844 47.8402 99.434 47.9179 99.8458 47.9179Z" fill="white"/>
<path d="M105.653 40.9376H107.482V44.1306H110.85V40.9376H112.68V49.258H110.85V45.6688H107.482V49.258H105.653V40.9376Z" fill="white"/>
<path d="M118.486 49.4445C117.841 49.4445 117.266 49.3357 116.761 49.1182C116.256 48.8929 115.829 48.586 115.479 48.1976C115.129 47.8091 114.861 47.3547 114.675 46.8342C114.488 46.3059 114.395 45.7387 114.395 45.1328C114.395 44.519 114.488 43.9441 114.675 43.4081C114.861 42.872 115.129 42.4059 115.479 42.0097C115.829 41.6135 116.256 41.3027 116.761 41.0774C117.266 40.8521 117.841 40.7395 118.486 40.7395C118.936 40.7395 119.367 40.8055 119.779 40.9376C120.191 41.0697 120.556 41.2639 120.874 41.5203C121.201 41.7689 121.469 42.0796 121.679 42.4525C121.888 42.8254 122.02 43.2527 122.075 43.7344H120.303C120.272 43.5246 120.202 43.3343 120.094 43.1634C119.985 42.9847 119.849 42.8293 119.686 42.6972C119.523 42.5652 119.336 42.4642 119.126 42.3943C118.924 42.3166 118.711 42.2777 118.486 42.2777C118.074 42.2777 117.724 42.3593 117.437 42.5224C117.149 42.6778 116.916 42.8915 116.738 43.1634C116.559 43.4275 116.427 43.7305 116.341 44.0723C116.264 44.4142 116.225 44.7676 116.225 45.1328C116.225 45.4824 116.264 45.8242 116.341 46.1583C116.427 46.4846 116.559 46.7798 116.738 47.0439C116.916 47.3081 117.149 47.5217 117.437 47.6848C117.724 47.8402 118.074 47.9179 118.486 47.9179C119.045 47.9179 119.48 47.747 119.791 47.4052C120.109 47.0633 120.303 46.6127 120.373 46.0534H122.145C122.098 46.5817 121.978 47.0556 121.783 47.4751C121.589 47.8868 121.333 48.2403 121.014 48.5355C120.696 48.8307 120.323 49.056 119.896 49.2114C119.468 49.3668 118.998 49.4445 118.486 49.4445Z" fill="white"/>
<path d="M127.589 49.4445C126.944 49.4445 126.369 49.3357 125.865 49.1182C125.36 48.8929 124.932 48.586 124.583 48.1976C124.233 47.8091 123.965 47.3547 123.779 46.8342C123.592 46.3059 123.499 45.7387 123.499 45.1328C123.499 44.519 123.592 43.9441 123.779 43.4081C123.965 42.872 124.233 42.4059 124.583 42.0097C124.932 41.6135 125.36 41.3027 125.865 41.0774C126.369 40.8521 126.944 40.7395 127.589 40.7395C128.226 40.7395 128.797 40.8521 129.302 41.0774C129.815 41.3027 130.246 41.6135 130.596 42.0097C130.945 42.4059 131.213 42.872 131.4 43.4081C131.586 43.9441 131.679 44.519 131.679 45.1328C131.679 45.7387 131.586 46.3059 131.4 46.8342C131.213 47.3547 130.945 47.8091 130.596 48.1976C130.246 48.586 129.815 48.8929 129.302 49.1182C128.797 49.3357 128.226 49.4445 127.589 49.4445ZM127.589 47.9179C128.001 47.9179 128.351 47.8402 128.638 47.6848C128.925 47.5217 129.158 47.3081 129.337 47.0439C129.516 46.7798 129.644 46.4846 129.722 46.1583C129.807 45.8242 129.85 45.4824 129.85 45.1328C129.85 44.7676 129.807 44.4142 129.722 44.0723C129.644 43.7305 129.516 43.4275 129.337 43.1634C129.158 42.8915 128.925 42.6778 128.638 42.5224C128.351 42.3593 128.001 42.2777 127.589 42.2777C127.177 42.2777 126.828 42.3593 126.54 42.5224C126.253 42.6778 126.02 42.8915 125.841 43.1634C125.663 43.4275 125.53 43.7305 125.445 44.0723C125.367 44.4142 125.328 44.7676 125.328 45.1328C125.328 45.4824 125.367 45.8242 125.445 46.1583C125.53 46.4846 125.663 46.7798 125.841 47.0439C126.02 47.3081 126.253 47.5217 126.54 47.6848C126.828 47.8402 127.177 47.9179 127.589 47.9179Z" fill="white"/>
<path d="M133.396 40.9376H137.149C137.669 40.9376 138.112 41.0153 138.477 41.1707C138.842 41.3183 139.137 41.5164 139.363 41.765C139.596 42.0136 139.763 42.301 139.864 42.6273C139.973 42.9458 140.027 43.2721 140.027 43.6062C140.027 43.948 139.973 44.2782 139.864 44.5967C139.763 44.9152 139.596 45.1988 139.363 45.4474C139.137 45.696 138.842 45.898 138.477 46.0534C138.112 46.201 137.669 46.2748 137.149 46.2748H135.226V49.258H133.396V40.9376ZM136.648 44.8531C136.857 44.8531 137.059 44.8376 137.253 44.8065C137.448 44.7754 137.619 44.7171 137.766 44.6317C137.914 44.5385 138.03 44.4103 138.116 44.2471C138.209 44.084 138.256 43.8703 138.256 43.6062C138.256 43.3421 138.209 43.1284 138.116 42.9653C138.03 42.8021 137.914 42.6778 137.766 42.5924C137.619 42.4991 137.448 42.437 137.253 42.4059C137.059 42.3748 136.857 42.3593 136.648 42.3593H135.226V44.8531H136.648Z" fill="white"/>
<path d="M147.823 49.258H141.635V40.9376H143.465V47.7198H146.727V40.9376H148.557V47.7198H149.478V51.1575H147.823V49.258Z" fill="white"/>
<path d="M150.864 40.9376H152.682V46.706H152.717L155.886 40.9376H157.937V49.258H156.119V43.478H156.085L152.915 49.258H150.864V40.9376Z" fill="white"/>
<path d="M161.621 49.4095C161.419 49.4095 161.237 49.3823 161.074 49.328C160.918 49.2736 160.802 49.2231 160.724 49.1765V47.6965C160.809 47.7431 160.91 47.7858 161.027 47.8247C161.151 47.8558 161.303 47.8713 161.481 47.8713C162.033 47.8713 162.367 47.6421 162.484 47.1838L159.151 40.9376H161.202L163.462 45.2726L165.152 40.9376H167.063L164.465 47.0439C164.278 47.4712 164.088 47.8363 163.894 48.1393C163.707 48.4345 163.497 48.6793 163.264 48.8735C163.039 49.0599 162.79 49.1959 162.518 49.2813C162.254 49.3668 161.955 49.4095 161.621 49.4095Z" fill="white"/>
<path d="M168.024 40.9376H170.6L172.546 46.6594H172.569L174.41 40.9376H176.986V49.258H175.273V43.3615H175.249L173.21 49.258H171.8L169.761 43.4197H169.737V49.258H168.024V40.9376Z" fill="white"/>
</svg>
