<svg width="228" height="64" viewBox="0 0 228 64" fill="none" xmlns="http://www.w3.org/2000/svg">
<path d="M209.688 14H18.3192V50H209.688V14Z" fill="transparent"/>
<path d="M120.488 43.9622V20.0381H135.35V25.5948H126.685V43.9622H120.488Z" fill="white"/>
<path d="M154.05 43.9622V34.5924H144.843V43.9622H138.645V20.0381H144.843V28.9664H154.05V20.0381H160.247V43.9622H154.05Z" fill="white"/>
<path d="M196.213 43.9622V25.5948H188.974V20.0381H209.688V25.5948H202.414V43.9622H196.213Z" fill="white"/>
<path d="M179.855 43.959V30.3275L169.989 43.959H164.807V20.0413H171.005V33.5309L180.705 20.0413H186.056V43.959H179.855Z" fill="white"/>
<path d="M84.8728 43.9622V29.7442L78.685 37.2554L72.4973 29.7442V43.9622H66.2998V20.0381H72.4162L78.685 28.2644L84.9539 20.0381H91.0701V43.9622H84.8728Z" fill="white"/>
<path d="M102.836 35.5479H108.595L105.716 28.0466L102.836 35.5479ZM111.826 43.9588L110.528 40.6068H100.893L99.596 43.9588H93.3663L102.898 20.0379H108.628L118.163 43.9588H111.826Z" fill="white"/>
<path d="M18.3125 24.8992C18.3185 22.0099 19.4508 19.2407 21.4615 17.1979C23.4722 15.1551 26.1974 14.0052 29.0405 14H53.8076V19.5402H29.047C27.65 19.5463 26.3118 20.1127 25.3237 21.1163C24.3356 22.1199 23.7774 23.4795 23.7705 24.8992L23.7381 34.2C23.6251 35.3916 23.1269 36.5116 22.3213 37.3852C21.5157 38.2587 20.4482 38.8364 19.2854 39.0283L18.3125 39.1799V24.8992Z" fill="white"/>
<path d="M18.3139 50V44.4596H43.081C44.4783 44.4528 45.8164 43.8855 46.8045 42.8815C47.7924 41.8773 48.3506 40.5174 48.3574 39.0975V30.2713C48.3642 28.9908 48.8188 27.7544 49.6398 26.783C50.4608 25.8116 51.5948 25.1685 52.8392 24.9683L53.8122 24.82V39.0975C53.8061 41.9872 52.674 44.7567 50.6633 46.8C48.6528 48.8433 45.9276 49.9937 43.0842 50H18.3139Z" fill="white"/>
<path d="M39.2953 39.1996V32.0379L36.0652 35.9566L32.8383 32.0379V39.1996H28.5608V25.1068H32.6113L36.0652 29.6386L39.519 25.1068H43.5696V39.1996H39.2953Z" fill="white"/>
</svg>
