<svg width="228" height="64" viewBox="0 0 228 64" fill="none" xmlns="http://www.w3.org/2000/svg">
<path d="M22.4218 27.7498C17.3295 25.7176 15.7941 21.3054 15.9795 19.4487C16.1656 17.5928 16.9371 17.0953 17.5214 16.928C17.5214 16.928 14.8898 15.6752 13.7709 17.7311C13.2745 18.9129 13 20.2112 13 21.5737C13 27.0558 17.4426 31.5 22.922 31.5C26.0925 31.5 28.9155 30.012 30.732 27.6967C30.7277 27.6988 27.5105 29.7808 22.4218 27.7498Z" fill="white"/>
<path d="M22.922 11.652C19.4376 11.652 16.3726 13.4497 14.6028 16.168C14.8168 16.0765 15.6841 15.7431 16.5999 15.9025C16.6035 15.903 16.609 15.9041 16.6133 15.9041C18.3322 13.6998 21.0117 12.2821 24.0226 12.2821C25.7876 12.2821 27.4392 12.77 28.8501 13.6173C27.1961 12.3827 25.1447 11.652 22.922 11.652Z" fill="white"/>
<path d="M22.5008 26.5735C23.7603 27.2935 25.1458 27.6929 26.5168 27.822C27.0925 27.6802 27.6429 27.4699 28.1296 27.1941C30.0715 25.982 35.8086 18.0208 35.8086 18.0208C35.8086 18.0208 32.6854 17.3784 31.3302 18.3729C29.9714 19.3633 28.9562 20.9385 27.4531 22.6362C25.9487 24.3344 25.2881 25.4029 23.9602 25.7387C22.9741 25.9902 22.0383 25.9484 21.1995 25.7605C21.6025 26.0351 22.0317 26.305 22.5008 26.5735Z" fill="white" fill-opacity="0.32"/>
<path d="M31.7736 26.9286C32.9755 26.0528 35.7823 22.2265 35.7823 22.2265C35.7823 22.2265 33.6283 21.0968 31.6724 22.2265C29.7154 23.3635 29.7742 23.6508 27.8316 25.2503C25.8927 26.8528 24.4405 27.0316 23.3708 26.9492C23.3114 26.947 23.2526 26.9346 23.1932 26.9298C25.9933 28.231 29.6361 28.4448 31.7736 26.9286Z" fill="white" fill-opacity="0.64"/>
<path d="M35.8103 11.6627C35.8103 11.6627 32.7714 10.8287 30.3287 12.9373C28.5746 14.4549 24.7951 24.6333 21.8219 25.2093C21.2455 25.3227 20.7819 25.3348 20.4031 25.2887C20.4091 25.2947 20.4141 25.2995 20.4201 25.3026C20.9201 25.3487 21.4995 25.3312 22.1686 25.2014C25.1397 24.6262 29.0703 15.2296 30.8905 13.7888C32.7118 12.3555 34.8895 12.7106 34.8895 12.7106L33.0197 15.9551L35.8103 11.6627Z" fill="white"/>
<path d="M201.498 13.1278L199.431 30.0352H210.454C211.366 30.0352 212.275 29.6895 212.949 29.0883C213.543 28.5585 213.919 27.8676 214.007 27.1385L214.981 19.5336C215.172 17.9365 213.901 16.6379 212.149 16.6379H206.77L207.249 13.1274L201.498 13.1278ZM44.9813 13.1298L42.0876 17.5883H47.7425L46.215 30.0373H51.8222L53.3497 17.5883H57.95L58.4974 13.1298H44.9813ZM94.2894 13.1298L92.2154 30.0373H97.8205L98.5791 23.8546H101.774L101.014 30.0373H106.62L108.695 13.1298H103.09L102.323 19.3787H99.1286L99.8955 13.1298H94.2894ZM126.734 13.1298L124.659 30.0373H130.264L131.024 23.8546H134.219L133.459 30.0373H139.065L141.139 13.1298H135.534L134.768 19.3787H131.573L132.34 13.1298H126.734ZM183.055 13.1298L182.505 17.5883H187.43L185.902 30.0373H191.508L193.037 17.5883H197.098L199.992 13.1298H183.055ZM60.2922 13.1309L58.2193 30.0383H63.987L64.3793 26.8518H69.7507C71.5053 26.8518 73.1108 25.5516 73.3284 23.9581L74.3033 16.0338C74.4009 15.3077 74.2039 14.617 73.7476 14.0892C73.2282 13.4885 72.4076 13.1443 71.4966 13.1443L60.2922 13.1309ZM79.7394 13.1309C79.1794 13.1309 78.6263 13.4901 78.453 13.9671L72.5883 30.0384H78.3094L79.2719 27.1623L84.7344 27.0961L85.0387 30.0384H90.7672L88.981 13.9528C88.9458 13.4697 88.5157 13.131 87.9357 13.131H79.74L79.7394 13.1309ZM142.928 13.1309L140.852 30.0383H154.657L155.204 25.5798H147.041L147.297 23.4966H155.46L155.929 19.6766H147.765L148.022 17.5902H156.181L156.733 13.1308L142.928 13.1309ZM161.709 13.1309C160.798 13.1309 159.888 13.477 159.213 14.0789C158.62 14.608 158.245 15.2991 158.157 16.0276L157.187 23.9541C156.996 25.5505 158.216 26.8509 159.969 26.8509H165.395L165.003 30.0384H170.655L171.047 26.8509H176.365C178.119 26.8509 179.725 25.5517 179.943 23.9583L180.916 16.0349C181.015 15.3088 180.817 14.6172 180.361 14.0893C179.841 13.4886 179.021 13.1444 178.109 13.1444L175.828 13.1309L161.709 13.1309ZM114.68 13.1422C113.492 13.1422 112.3 13.5991 111.408 14.3955C110.627 15.0919 110.136 15.9951 110.021 16.9425L108.883 26.2297C108.757 27.1703 108.963 28.0787 109.575 28.7859C110.27 29.589 111.343 30.0496 112.518 30.0496H118.615C120.902 30.0496 123.06 28.3322 123.342 26.2266L123.664 23.5555H117.974L117.725 25.5757H114.579L115.56 17.5861H118.706L118.499 19.2658H124.194L124.552 16.339C124.836 13.9796 122.696 13.1421 120.777 13.1421L114.68 13.1422ZM163.575 17.5903H166.532L165.945 22.3665H162.988L163.575 17.5903ZM172.185 17.5903H175.148L174.607 21.9898C174.576 22.2007 174.381 22.3665 174.169 22.3665H171.599L172.185 17.5903ZM65.5725 17.5997H68.5334L67.93 21.9339C67.8985 22.1745 67.6729 22.3707 67.4281 22.3707H64.9319L65.4586 18.4379L65.5725 17.5997ZM82.6272 18.2123H83.7522L84.2696 22.8767H80.8813L82.6272 18.2123ZM206.18 21.1194H209.078L208.62 24.8524C208.57 25.2651 208.219 25.5757 207.804 25.5757H205.633L206.18 21.1194Z" fill="white"/>
<path d="M20.942 50.5L20.201 48.303H16.197L15.469 50.5H14.26L17.393 41.14H19.005L22.138 50.5H20.942ZM16.561 47.224H19.837L18.186 42.362L16.561 47.224ZM27.4284 50.695C26.5184 50.695 25.7341 50.4913 25.0754 50.084C24.4167 49.6767 23.9141 49.1047 23.5674 48.368C23.2294 47.6313 23.0604 46.782 23.0604 45.82C23.0604 44.858 23.2294 44.0087 23.5674 43.272C23.9141 42.5353 24.4167 41.9633 25.0754 41.556C25.7341 41.1487 26.5184 40.945 27.4284 40.945C28.3471 40.945 29.1314 41.1487 29.7814 41.556C30.4401 41.9633 30.9384 42.5353 31.2764 43.272C31.6231 44 31.7964 44.8493 31.7964 45.82C31.7964 46.7907 31.6231 47.6443 31.2764 48.381C30.9384 49.109 30.4401 49.6767 29.7814 50.084C29.1314 50.4913 28.3471 50.695 27.4284 50.695ZM27.4284 49.59C28.4511 49.5987 29.2311 49.2607 29.7684 48.576C30.3057 47.8913 30.5744 46.9727 30.5744 45.82C30.5744 44.6673 30.3057 43.753 29.7684 43.077C29.2311 42.401 28.4511 42.0587 27.4284 42.05C26.4144 42.0413 25.6387 42.3793 25.1014 43.064C24.5727 43.74 24.3041 44.6587 24.2954 45.82C24.2867 46.9727 24.5511 47.887 25.0884 48.563C25.6257 49.239 26.4057 49.5813 27.4284 49.59ZM36.8744 45.807L39.1364 42.973L39.7994 43.493L37.9534 45.807L39.7994 48.134L39.1364 48.654L36.8744 45.807ZM39.2534 45.807L41.5154 42.973L42.1784 43.493L40.3194 45.807L42.1784 48.134L41.5154 48.654L39.2534 45.807ZM51.171 41.14V50.5H50.001V46.756C49.7236 46.9293 49.3856 47.0637 48.987 47.159C48.597 47.2457 48.181 47.289 47.739 47.289C46.595 47.289 45.7586 46.977 45.23 46.353C44.71 45.7203 44.45 44.8537 44.45 43.753V41.14H45.62V43.376C45.62 44.26 45.789 44.949 46.127 45.443C46.465 45.9283 47.063 46.171 47.921 46.171C48.3543 46.171 48.7486 46.1147 49.104 46.002C49.468 45.8807 49.767 45.729 50.001 45.547V41.14H51.171ZM53.5139 41.14H59.4289V42.232H54.6709V45.17H58.6489V46.262H54.6709V49.395H59.4289V50.5H53.5139V41.14ZM65.2164 41.14C65.4591 41.14 65.6888 41.1573 65.9054 41.192C66.6421 41.3047 67.2098 41.6253 67.6084 42.154C68.0158 42.674 68.2194 43.3197 68.2194 44.091C68.2194 44.8537 68.0158 45.4993 67.6084 46.028C67.2098 46.5567 66.6421 46.8773 65.9054 46.99C65.6888 47.0247 65.4591 47.042 65.2164 47.042H62.6684V50.5H61.5114V41.14H65.2164ZM65.1774 45.937C65.3941 45.937 65.5891 45.9197 65.7624 45.885C66.1871 45.7897 66.5034 45.573 66.7114 45.235C66.9281 44.897 67.0364 44.5157 67.0364 44.091C67.0364 43.6663 66.9281 43.285 66.7114 42.947C66.5034 42.609 66.1871 42.3923 65.7624 42.297C65.5978 42.2537 65.4028 42.232 65.1774 42.232H62.6684V45.937H65.1774ZM70.0422 41.14H71.1992V45.261H76.1262V41.14H77.2832V50.5H76.1262V46.366H71.1992V50.5H70.0422V41.14ZM83.4746 50.695C82.5646 50.695 81.7803 50.4913 81.1216 50.084C80.463 49.6767 79.9603 49.1047 79.6136 48.368C79.2756 47.6313 79.1066 46.782 79.1066 45.82C79.1066 44.858 79.2756 44.0087 79.6136 43.272C79.9603 42.5353 80.463 41.9633 81.1216 41.556C81.7803 41.1487 82.5646 40.945 83.4746 40.945C84.3933 40.945 85.1776 41.1487 85.8276 41.556C86.4863 41.9633 86.9846 42.5353 87.3226 43.272C87.6693 44 87.8426 44.8493 87.8426 45.82C87.8426 46.7907 87.6693 47.6443 87.3226 48.381C86.9846 49.109 86.4863 49.6767 85.8276 50.084C85.1776 50.4913 84.3933 50.695 83.4746 50.695ZM83.4746 49.59C84.4973 49.5987 85.2773 49.2607 85.8146 48.576C86.352 47.8913 86.6206 46.9727 86.6206 45.82C86.6206 44.6673 86.352 43.753 85.8146 43.077C85.2773 42.401 84.4973 42.0587 83.4746 42.05C82.4606 42.0413 81.685 42.3793 81.1476 43.064C80.619 43.74 80.3503 44.6587 80.3416 45.82C80.333 46.9727 80.5973 47.887 81.1346 48.563C81.672 49.239 82.452 49.5813 83.4746 49.59ZM89.6681 41.14H90.7211L94.2571 48.589L97.7801 41.14H98.8461V50.487H97.7411V43.675L94.5691 50.5H93.9451L90.7731 43.675V50.5H89.6681V41.14ZM105.03 50.695C104.12 50.695 103.336 50.4913 102.677 50.084C102.019 49.6767 101.516 49.1047 101.169 48.368C100.831 47.6313 100.662 46.782 100.662 45.82C100.662 44.858 100.831 44.0087 101.169 43.272C101.516 42.5353 102.019 41.9633 102.677 41.556C103.336 41.1487 104.12 40.945 105.03 40.945C105.949 40.945 106.733 41.1487 107.383 41.556C108.042 41.9633 108.54 42.5353 108.878 43.272C109.225 44 109.398 44.8493 109.398 45.82C109.398 46.7907 109.225 47.6443 108.878 48.381C108.54 49.109 108.042 49.6767 107.383 50.084C106.733 50.4913 105.949 50.695 105.03 50.695ZM105.03 49.59C106.053 49.5987 106.833 49.2607 107.37 48.576C107.908 47.8913 108.176 46.9727 108.176 45.82C108.176 44.6673 107.908 43.753 107.37 43.077C106.833 42.401 106.053 42.0587 105.03 42.05C104.016 42.0413 103.241 42.3793 102.703 43.064C102.175 43.74 101.906 44.6587 101.897 45.82C101.889 46.9727 102.153 47.887 102.69 48.563C103.228 49.239 104.008 49.5813 105.03 49.59ZM114.929 41.14C115.171 41.14 115.401 41.1573 115.618 41.192C116.354 41.3047 116.922 41.6253 117.321 42.154C117.728 42.674 117.932 43.3197 117.932 44.091C117.932 44.8537 117.728 45.4993 117.321 46.028C116.922 46.5567 116.354 46.8773 115.618 46.99C115.401 47.0247 115.171 47.042 114.929 47.042H112.381V50.5H111.224V41.14H114.929ZM114.89 45.937C115.106 45.937 115.301 45.9197 115.475 45.885C115.899 45.7897 116.216 45.573 116.424 45.235C116.64 44.897 116.749 44.5157 116.749 44.091C116.749 43.6663 116.64 43.285 116.424 42.947C116.216 42.609 115.899 42.3923 115.475 42.297C115.31 42.2537 115.115 42.232 114.89 42.232H112.381V45.937H114.89ZM122.172 42.232H118.974V41.14H126.514V42.232H123.329V50.5H122.172V42.232ZM131.774 41.14C132.017 41.14 132.247 41.1573 132.463 41.192C133.2 41.3047 133.768 41.6253 134.166 42.154C134.574 42.674 134.777 43.3197 134.777 44.091C134.777 44.8537 134.574 45.4993 134.166 46.028C133.768 46.5567 133.2 46.8773 132.463 46.99C132.247 47.0247 132.017 47.042 131.774 47.042H129.226V50.5H128.069V41.14H131.774ZM131.735 45.937C131.952 45.937 132.147 45.9197 132.32 45.885C132.745 45.7897 133.061 45.573 133.269 45.235C133.486 44.897 133.594 44.5157 133.594 44.091C133.594 43.6663 133.486 43.285 133.269 42.947C133.061 42.609 132.745 42.3923 132.32 42.297C132.156 42.2537 131.961 42.232 131.735 42.232H129.226V45.937H131.735ZM142.239 50.5L141.498 48.303H137.494L136.766 50.5H135.557L138.69 41.14H140.302L143.435 50.5H142.239ZM137.858 47.224H141.134L139.483 42.362L137.858 47.224ZM145.131 41.14H146.288V45.261H151.215V41.14H152.372V50.5H151.215V46.366H146.288V50.5H145.131V41.14ZM158.563 50.695C157.653 50.695 156.869 50.4913 156.21 50.084C155.552 49.6767 155.049 49.1047 154.702 48.368C154.364 47.6313 154.195 46.782 154.195 45.82C154.195 44.858 154.364 44.0087 154.702 43.272C155.049 42.5353 155.552 41.9633 156.21 41.556C156.869 41.1487 157.653 40.945 158.563 40.945C159.629 40.945 160.513 41.2137 161.215 41.751C161.926 42.2883 162.416 43.0337 162.684 43.987L161.514 44.299C161.315 43.5883 160.964 43.038 160.461 42.648C159.967 42.2493 159.335 42.05 158.563 42.05C157.541 42.05 156.761 42.388 156.223 43.064C155.695 43.74 155.426 44.6587 155.417 45.82C155.409 46.9727 155.673 47.8913 156.21 48.576C156.756 49.252 157.541 49.59 158.563 49.59C159.335 49.59 159.967 49.395 160.461 49.005C160.964 48.6063 161.315 48.0473 161.514 47.328L162.684 47.64C162.407 48.5933 161.917 49.343 161.215 49.889C160.513 50.4263 159.629 50.695 158.563 50.695ZM164.63 41.14H165.787V45.261H170.714V41.14H171.871V50.5H170.714V46.366H165.787V50.5H164.63V41.14ZM174.214 41.14H180.129V42.232H175.371V45.17H179.349V46.262H175.371V49.395H180.129V50.5H174.214V41.14ZM185.016 49.226C184.774 49.2607 184.587 49.278 184.457 49.278C183.877 49.278 183.348 49.1307 182.871 48.836C182.395 48.5413 182.013 48.1123 181.727 47.549C181.441 46.977 181.298 46.3053 181.298 45.534C181.298 44.7627 181.441 44.091 181.727 43.519C182.013 42.947 182.395 42.5137 182.871 42.219C183.357 41.9157 183.89 41.764 184.47 41.764C184.592 41.764 184.774 41.7813 185.016 41.816V41.14H186.16V41.816C186.403 41.7813 186.585 41.764 186.706 41.764C187.287 41.764 187.816 41.9157 188.292 42.219C188.778 42.5137 189.163 42.947 189.449 43.519C189.735 44.091 189.878 44.7627 189.878 45.534C189.878 46.3053 189.735 46.977 189.449 47.549C189.163 48.1123 188.782 48.5413 188.305 48.836C187.829 49.1307 187.3 49.278 186.719 49.278C186.589 49.278 186.403 49.2607 186.16 49.226V50.5H185.016V49.226ZM185.016 42.882C184.843 42.8647 184.717 42.856 184.639 42.856C183.972 42.856 183.448 43.1117 183.066 43.623C182.685 44.1257 182.494 44.7627 182.494 45.534C182.494 46.3053 182.681 46.938 183.053 47.432C183.435 47.9173 183.959 48.16 184.626 48.16C184.8 48.16 184.93 48.1513 185.016 48.134V42.882ZM186.16 48.134C186.247 48.1513 186.377 48.16 186.55 48.16C187.218 48.16 187.742 47.9173 188.123 47.432C188.505 46.938 188.695 46.314 188.695 45.56C188.695 45.066 188.609 44.6153 188.435 44.208C188.262 43.792 188.011 43.4627 187.681 43.22C187.361 42.9773 186.975 42.856 186.524 42.856C186.455 42.856 186.334 42.8647 186.16 42.882V48.134ZM193.859 42.232H190.661V41.14H198.201V42.232H195.016V50.5H193.859V42.232ZM200.913 41.14V44.598H203.448C203.699 44.598 203.929 44.6153 204.137 44.65C204.873 44.7627 205.441 45.0833 205.84 45.612C206.247 46.132 206.451 46.7777 206.451 47.549C206.451 48.3117 206.247 48.9573 205.84 49.486C205.441 50.0147 204.873 50.3353 204.137 50.448C203.929 50.4827 203.699 50.5 203.448 50.5H199.756V41.14H200.913ZM203.409 49.395C203.625 49.395 203.82 49.3777 203.994 49.343C204.418 49.2477 204.735 49.031 204.943 48.693C205.159 48.355 205.268 47.9737 205.268 47.549C205.268 47.1243 205.159 46.743 204.943 46.405C204.735 46.067 204.418 45.8503 203.994 45.755C203.829 45.7117 203.634 45.69 203.409 45.69H200.913V49.395H203.409ZM208.999 48.654L208.336 48.134L210.195 45.807L208.336 43.493L208.999 42.973L211.261 45.807L208.999 48.654ZM211.378 48.654L210.715 48.134L212.561 45.807L210.715 43.493L211.378 42.973L213.64 45.807L211.378 48.654Z" fill="white" fill-opacity="0.48"/>
</svg>
