<svg width="228" height="64" viewBox="0 0 228 64" fill="none" xmlns="http://www.w3.org/2000/svg">
<path d="M173.808 15.9893C172.133 16.3617 169.691 17.4168 168.202 18.3891C162.926 21.906 160.051 28.402 161.044 34.5462C162.12 41.0836 166.547 46.1935 172.712 48.014L173.808 48.3243L172.774 47.2072C171.119 45.3659 170.271 43.2558 170.271 40.7939C170.271 38.1459 171.057 36.3254 174.532 30.9466C177.118 26.8918 179.27 22.9197 179.497 21.7405C179.663 20.8716 179.911 20.8303 180.077 21.6785C180.387 23.2714 182.125 26.4573 185.497 31.6086C189.014 37.0081 189.883 39.8216 189.014 43.1317L188.745 44.2281L189.241 43.7523C190.214 42.842 191.6 40.8146 192.386 39.1596C194.91 33.8429 194.393 27.4917 191.062 22.7956C189.365 20.3751 187.255 18.5753 184.607 17.2513C182.683 16.2789 182.683 16.2789 182.683 17.7064V18.9477L182.021 19.0097C181.421 19.0718 181.339 19.1545 181.339 19.6924L181.318 20.3131H178.235V19.6924C178.215 19.1545 178.132 19.0718 177.553 19.0097L176.891 18.9477V15.6583L176.022 15.679C175.525 15.6997 174.532 15.8238 173.808 15.9893Z" fill="white" fill-opacity="0.32"/>
<path d="M211.129 14.3343C209.681 15.0997 208.584 15.6997 207.612 16.2789C207.053 16.6099 205.998 17.1892 205.295 17.5616L203.992 18.2443V21.8026C203.992 23.8507 204.074 25.3816 204.178 25.3816C204.281 25.3816 204.571 25.0506 204.84 24.6368C205.088 24.223 205.502 23.6645 205.729 23.4162C205.978 23.1473 206.309 22.6715 206.474 22.3405C206.64 22.0301 206.909 21.5957 207.095 21.4095C207.26 21.2233 207.509 20.9337 207.612 20.7889C208.564 19.5476 208.957 18.9684 208.957 18.7822C208.957 18.658 209.019 18.5546 209.122 18.5546C209.205 18.5546 209.495 18.2029 209.784 17.7685C210.074 17.3547 210.736 16.3824 211.274 15.5962C211.832 14.8308 212.267 14.1688 212.267 14.1067C212.267 13.8999 211.75 14.0033 211.129 14.3343Z" fill="white"/>
<path d="M90.3124 22.0508C86.7541 23.3542 84.5199 25.6712 83.3614 29.2088C82.9476 30.4501 82.989 34.1739 83.4234 35.3117C84.2509 37.5253 84.9957 38.6424 86.6507 40.1733C88.5747 41.9111 91.8433 42.9248 94.6362 42.6558C96.3533 42.4697 98.4014 41.787 99.0634 41.1456C99.2082 41.0215 99.4357 40.8974 99.5392 40.8974C99.8495 40.8974 102.415 38.2493 102.415 37.9183C102.415 37.7322 102.498 37.5873 102.601 37.5873C102.766 37.5873 103.304 36.5116 103.366 35.9737C103.408 35.7875 102.87 35.7254 101.318 35.7254H99.2495L98.4014 36.5943C97.9255 37.0908 96.9946 37.7528 96.3326 38.0838C95.2982 38.601 94.8844 38.7045 93.5397 38.6838C91.6778 38.6838 90.6021 38.27 89.0919 36.946C87.5816 35.622 87.0024 34.2359 87.0231 32.0016C87.0438 30.3673 87.0852 30.1604 87.7885 29.0019C88.5954 27.6365 89.278 26.9331 90.5193 26.2091C91.1813 25.816 91.7399 25.7126 93.2087 25.6298C95.4637 25.5264 96.4153 25.8781 98.1324 27.4503L99.2702 28.4847H101.36C102.642 28.4847 103.449 28.402 103.449 28.2778C103.449 28.1537 103.18 27.5745 102.829 26.9745C101.567 24.7402 99.4151 22.9818 96.8705 22.1129C95.1741 21.5129 91.8433 21.4923 90.3124 22.0508Z" fill="white"/>
<path d="M112.097 21.9681C109.511 22.6715 107.07 24.823 105.683 27.6365L104.794 29.4157V32.0016C104.794 35.4772 105.456 37.2977 107.483 39.3458C108.456 40.3388 110.483 41.8904 110.483 41.6215C110.483 41.5594 110.855 41.7042 111.29 41.9318C112.8 42.6972 116.131 42.8834 118.034 42.3248C119.255 41.9731 120.475 41.456 120.786 41.1663C120.93 41.0215 121.158 40.8974 121.261 40.8974C121.53 40.8974 123.909 38.3942 124.054 37.9597C124.116 37.7528 124.261 37.5873 124.364 37.5873C124.468 37.5873 124.53 37.5253 124.509 37.4218C124.489 37.3391 124.633 36.9874 124.82 36.615C125.006 36.2426 125.171 35.9116 125.171 35.8289C125.171 35.7668 124.178 35.7254 122.958 35.7254C120.744 35.7254 120.723 35.7254 120.33 36.3047C119.606 37.3598 118.22 38.208 116.648 38.539C114.869 38.9114 113.896 38.7872 112.241 38.0011C110.917 37.3598 109.8 36.2219 109.118 34.7945C108.331 33.1602 108.704 29.4777 109.78 28.3606C109.883 28.2158 110.235 27.8434 110.524 27.4917C110.814 27.14 111.621 26.5815 112.304 26.2298C114.786 24.9678 117.827 25.485 119.855 27.4917L120.827 28.4847H122.896C124.013 28.4847 124.985 28.402 125.047 28.2985C125.42 27.7193 122.213 23.8507 120.703 23.0438C119.524 22.4025 118.655 22.0508 117.827 21.8646C116.648 21.5957 113.234 21.6371 112.097 21.9681Z" fill="white"/>
<path d="M179.477 22.4232C179.208 23.5197 177.284 27.0573 175.277 30.2018C172.65 34.2359 171.677 35.953 171.119 37.4632C168.843 43.6282 173.25 49.9793 179.808 50C184.918 50 189.076 45.9038 189.097 40.8146C189.097 38.4355 188.145 36.1392 185.455 32.0016C182.745 27.8227 182.187 26.8711 181.214 24.9678C180.677 23.892 180.159 22.7542 180.097 22.4232C180.015 22.1129 179.87 21.8646 179.787 21.8646C179.704 21.8646 179.559 22.1129 179.477 22.4232ZM175.856 31.8982C175.856 31.9603 175.587 32.4982 175.256 33.0981C173.994 35.3324 173.684 36.4702 173.684 38.8286C173.684 40.9594 173.705 41.0215 174.491 42.449C174.925 43.2351 175.649 44.2902 176.105 44.7453L176.932 45.6142L176.394 46.4624C176.105 46.9175 175.856 47.4347 175.856 47.6209C175.856 48.1174 175.546 47.9933 174.76 47.1244C173.084 45.2625 172.133 42.8834 172.133 40.525C172.133 38.7252 172.526 37.1943 173.498 35.2496C174.615 33.036 175.856 31.2569 175.856 31.8982Z" fill="white"/>
<path d="M14.2849 42.3869L19.7258 42.2835C25.7873 42.18 26.6562 42.0145 28.063 40.8146C28.5181 40.4216 29.1594 39.6147 29.4904 39.0148C30.0076 38.0632 30.0904 37.6701 30.1111 36.3461C30.1111 35.1048 30.0076 34.6083 29.5939 33.8015C29.118 32.8498 27.8975 31.5465 27.2975 31.3396C27.0906 31.2569 27.07 31.1328 27.2148 30.9259C27.3389 30.7604 27.6906 30.2225 28.0216 29.7674C29.0974 28.1951 28.8491 25.5471 27.463 23.9334C27.1113 23.5403 26.801 23.23 26.7596 23.2714C26.7183 23.2921 26.47 23.168 26.2011 22.9818C25.1046 22.2784 23.6565 22.0922 18.919 22.0715L14.2849 22.0508V42.3869ZM24.3392 26.6849C24.6081 26.9952 24.8357 27.4503 24.8357 27.6779C24.8357 28.3606 24.2771 29.2088 23.6565 29.4984C22.891 29.8501 18.6087 29.8294 18.3811 29.4571C18.2777 29.3122 18.2363 28.464 18.257 27.5538L18.2983 25.8988L21.0705 26.0022C23.7806 26.1056 23.8427 26.1056 24.3392 26.6849ZM24.0702 33.7808C25.3115 34.1945 26.0769 35.0841 26.0769 36.1185C26.0769 37.8149 24.9598 38.3114 21.0705 38.3942L18.2156 38.4562V36.5943C18.2156 35.5806 18.2777 34.4428 18.3397 34.0911L18.4845 33.4498H20.7809C22.3738 33.4498 23.4082 33.5532 24.0702 33.7808Z" fill="white"/>
<path d="M31.8695 42.0973L32.3453 42.2214C32.966 42.3869 44.8821 42.3869 45.7096 42.2214L46.3716 42.0766L46.2475 38.208H36.0071V33.2429H37.207L38.3862 33.2222L39.5033 31.6293C40.848 29.7053 40.9721 29.3743 40.3101 29.3743C40.0412 29.3536 38.9654 29.3536 37.931 29.3329L36.0071 29.3122V26.0022L41.1376 25.9608L46.2475 25.8988L46.2889 23.9748L46.3096 22.0715H31.8695V42.0973Z" fill="white"/>
<path d="M53.9434 25.2367C53.2813 26.9538 52.4952 28.9399 52.2056 29.6226C51.916 30.3052 51.6677 31.0086 51.6263 31.1741C51.5849 31.3396 51.3367 32.0016 51.0884 32.6223C50.2196 34.7945 49.9299 35.4979 48.4197 39.5527C48.337 39.7802 48.068 40.4629 47.8405 41.0629C47.3233 42.4076 47.3233 42.4076 49.7851 42.3042C51.5022 42.2421 51.6263 42.2007 51.8539 41.7249C52.3504 40.7112 52.7642 39.6975 52.7642 39.4699C52.7642 39.3458 52.8469 39.0769 52.971 38.87C53.2813 38.3321 54.626 34.8566 54.626 34.6083C54.626 34.4842 54.7502 34.1325 54.9157 33.8429C55.0605 33.5532 55.2467 33.0567 55.3294 32.7257C55.4742 32.1878 55.7432 31.5258 56.5914 29.6226C56.7362 29.2709 56.9431 28.733 57.0258 28.402C57.1706 27.8227 57.1706 27.8227 57.5637 28.9192C57.9982 30.1397 58.1637 30.5535 58.5774 31.4845C58.7222 31.8155 58.8464 32.1465 58.867 32.2085C59.136 33.1602 59.6532 34.629 60.0876 35.6013C60.3773 36.2633 60.6255 36.9253 60.6255 37.0495C60.6255 37.1736 60.7496 37.5046 60.8944 37.7942C61.0393 38.0838 61.3703 38.9114 61.6392 39.6561C61.9081 40.4009 62.1771 41.1456 62.2391 41.3111C62.3012 41.4766 62.3633 41.7042 62.3633 41.787C62.4047 42.18 63.1287 42.3455 64.8044 42.3455C65.7974 42.3455 66.6456 42.2628 66.7284 42.1593C66.8111 41.9938 66.025 39.7182 64.5562 35.9323C64.1424 34.8772 62.6529 30.9673 62.0736 29.4157C61.8461 28.8364 61.2461 27.2641 60.7083 25.8988C60.1704 24.5334 59.6325 23.1059 59.5084 22.7335L59.2808 22.0715H55.1432L53.9434 25.2367Z" fill="white"/>
<path d="M68.28 31.981C68.28 40.1112 68.3214 41.9318 68.5696 42.118C68.7558 42.2835 70.8246 42.3455 75.7483 42.3042L82.658 42.2421V38.3114L77.5481 38.2494L72.4175 38.208V33.2429H73.6588C74.3415 33.2429 74.9001 33.1602 74.9001 33.0567C74.9001 32.9533 75.4173 32.1878 76.0379 31.3603C76.6585 30.5328 77.1757 29.7467 77.1757 29.5812C77.1757 29.3743 76.6378 29.3122 74.7966 29.3122H72.3968L72.521 26.1056L82.658 25.8988V22.175L75.4793 22.1129L68.28 22.0715V31.981Z" fill="white"/>
<path d="M125.316 22.2163C125.254 22.3198 125.233 23.2093 125.254 24.2437L125.275 26.1056L130.964 26.2298V42.3042L133.033 42.3248L135.101 42.3662V26.2298L140.791 26.1056L140.915 22.0715H133.157C128.895 22.0715 125.358 22.1336 125.316 22.2163Z" fill="white"/>
<path d="M142.715 22.1956C142.673 22.2991 142.632 26.809 142.652 32.2085L142.673 42.0352L146.687 42.1593V33.8635H147.783C151.465 33.8222 154.507 33.4084 155.438 32.7878C156.472 32.1258 157.403 30.7604 157.672 29.5191C157.982 28.0503 157.817 26.0849 157.279 25.0299C156.72 23.9334 155.375 22.7956 154.279 22.4853C153.245 22.1956 142.859 21.9267 142.715 22.1956ZM152.789 26.2504C153.017 26.3539 153.41 26.6849 153.638 26.9745C154.031 27.4296 154.051 27.5951 153.865 28.3192C153.534 29.6019 153.162 29.7467 149.769 29.7467L146.79 29.7674L146.666 25.9815L149.521 26.0229C151.093 26.0229 152.562 26.147 152.789 26.2504Z" fill="white"/>
<path d="M197.413 32.1465L197.475 42.2421L199.068 42.3042C200.413 42.3455 200.723 42.3042 200.971 41.9938C201.737 41.0629 202.709 39.8009 203.288 38.9941C203.64 38.4976 204.592 37.215 205.378 36.1392C206.185 35.0634 206.991 33.8842 207.219 33.5532C207.426 33.2015 207.653 32.8912 207.736 32.8292C207.798 32.7671 208.109 32.3326 208.419 31.8361C208.729 31.3603 209.164 30.7604 209.391 30.5328C209.805 30.1191 209.805 30.1397 209.784 36.1806L209.764 42.2421L213.715 42.3662V22.0715H210.26L209.515 23.1473C209.102 23.7472 208.398 24.7609 207.943 25.3816C207.467 26.0022 206.95 26.7883 206.764 27.1193C206.578 27.4503 206.247 27.9055 206.04 28.133C205.833 28.3606 205.398 28.9399 205.088 29.395C204.778 29.8708 204.468 30.2846 204.405 30.3466C203.95 30.7604 202.792 32.5809 202.895 32.705C202.957 32.7671 202.916 32.8292 202.792 32.8292C202.668 32.8292 202.337 33.2222 202.047 33.698L201.509 34.5876V22.0715H197.372L197.413 32.1465Z" fill="white"/>
</svg>
