<svg width="228" height="64" viewBox="0 0 228 64" fill="none" xmlns="http://www.w3.org/2000/svg">
<path fill-rule="evenodd" clip-rule="evenodd" d="M65.5485 12L63.6383 17.2323H90.109L92.0192 12H65.5485ZM62.6827 19.8473L60.7725 25.0784H87.2432L89.1534 19.8473H62.6827ZM59.8228 27.6946L57.9126 32.9257H84.3833L86.2923 27.6946H59.8228Z" fill="white"/>
<path fill-rule="evenodd" clip-rule="evenodd" d="M114.188 34.9197V35.0301C115.397 35.4742 116.553 36.2506 117.158 36.7492C119.029 38.3021 119.855 40.3535 119.855 43.0152C119.855 47.3972 117.544 50.5575 113.747 51.556C112.592 51.8884 111.382 52 109.125 52H97.6271V19.948H107.806C109.896 19.948 111.326 20.0584 112.592 20.3908C116.279 21.3892 118.699 23.9405 118.699 27.9877C118.699 30.1508 117.929 31.9814 116.664 33.2007C116.114 33.7551 115.343 34.4211 114.188 34.9197ZM104.009 38.3021V46.7312H108.411C109.73 46.7312 110.941 46.6208 111.822 45.7886C112.702 44.9563 113.087 43.9033 113.087 42.5166C113.087 41.4636 112.812 40.4652 112.262 39.7445C111.326 38.5799 110.171 38.3021 108.191 38.3021H104.009ZM103.954 32.7567H107.53C108.63 32.7567 109.18 32.7567 109.73 32.5904C111.217 32.1464 112.152 30.8168 112.152 28.9861C112.152 26.8242 111.162 25.8804 109.73 25.4376C109.125 25.2714 108.521 25.2156 107.31 25.2156H103.954V32.7567ZM129.428 52V25.326H120.24V19.948H145.769L143.954 25.326H135.81V52H129.428ZM147.749 52V19.948H168.437L166.622 25.326H154.077V32.4242H159.194C163.32 32.4242 165.467 33.4227 166.952 34.6977C168.108 35.6962 170.088 37.9139 170.088 42.2958C170.088 46.6208 168.052 49.0047 166.347 50.2251C164.366 51.6106 162.276 52 158.039 52H147.749ZM154.077 46.6208H158.864C160.679 46.6208 161.78 46.1768 162.55 45.1783C162.935 44.6797 163.485 43.7917 163.485 42.1284C163.485 40.4652 162.935 39.3005 161.835 38.4683C161.175 37.9697 160.294 37.6931 158.809 37.6931H154.077V46.6208Z" fill="white"/>
</svg>
