<svg width="228" height="64" viewBox="0 0 228 64" fill="none" xmlns="http://www.w3.org/2000/svg">
<path d="M80.5361 46.0229L76.7408 39.7145L73.024 46.0229H68.574L74.291 36.5213L68.4647 27.7001H73.1131L76.8455 33.5896L80.4054 27.7001H84.855L79.1228 36.8092L85.0121 46.0229H80.5361Z" fill="white"/>
<path d="M99.4759 39.7932C99.4759 43.8241 96.4397 46.3369 92.4609 46.3369C88.9534 46.3369 86.0003 44.4001 85.7125 40.1858H89.5078C89.7695 42.018 91.2354 42.8033 92.8322 42.8033C94.8214 42.8033 95.6806 41.4683 95.6806 39.7408C95.6806 37.9346 94.3457 36.8092 92.4871 36.8092C90.9429 36.8092 89.922 37.542 89.4509 38.3273H85.8229L87.0772 27.7001H99.0095L98.6121 31.2601H90.0767L89.7378 34.7769C89.7378 34.7769 90.6347 33.7205 93.351 33.7205C96.623 33.7205 99.4759 35.9192 99.4759 39.7932Z" fill="white"/>
<path d="M86.1621 25.4182C84.1406 17.537 77.7252 12 64.4142 12H48.3428L50.5244 26.7519C52.1656 40.0631 57.2567 44.3456 66.266 45.9223C66.3084 45.9288 66.5926 45.9694 66.5969 45.6353C66.5983 45.5152 66.5219 45.4115 66.4177 45.3675C60.3281 42.8032 59.633 34.3953 58.3326 25.9572L57.3257 19.2333H66.5003C74.9592 19.2333 81.4889 19.0997 85.6244 25.6285C85.6864 25.7208 85.7817 25.7885 85.895 25.7885C86.0551 25.7885 86.1734 25.6586 86.1734 25.4986C86.1734 25.4706 86.1693 25.4438 86.1621 25.4182Z" fill="white"/>
<path d="M102.659 36.8476C102.659 31.1557 106.792 27.0492 112.536 27.0492C116.382 27.0492 119.865 29.2844 120.879 32.3512L118.721 33.079C117.942 30.7918 115.369 29.1285 112.536 29.1285C108.143 29.1285 105.024 32.3253 105.024 36.8476C105.024 41.318 108.169 44.5927 112.536 44.5927C116.486 44.5927 119.605 41.7598 119.709 38.0691L110.612 38.0432V35.9379H122.1C122.49 42.1756 118.487 46.672 112.536 46.672C106.792 46.672 102.659 42.5395 102.659 36.8476Z" fill="white"/>
<path d="M124.944 32.8972H127.049V34.6645H127.283C127.881 33.4689 129.336 32.6372 130.791 32.6372C131.389 32.6372 132.013 32.7672 132.403 32.975V34.9763C131.727 34.6904 130.948 34.5864 130.454 34.5864C128.478 34.5864 127.101 36.3537 127.101 38.9528V46.0222H124.944V32.8972Z" fill="white"/>
<path d="M145.546 39.4467C145.546 36.4837 143.493 34.3265 140.66 34.3265C137.801 34.3265 135.774 36.4837 135.774 39.4467C135.774 42.4355 137.801 44.5927 140.66 44.5927C143.493 44.5927 145.546 42.4355 145.546 39.4467ZM133.617 39.4467C133.617 35.3142 136.528 32.3773 140.66 32.3773C144.767 32.3773 147.704 35.3142 147.704 39.4467C147.704 43.6051 144.767 46.542 140.66 46.542C136.528 46.542 133.617 43.6051 133.617 39.4467Z" fill="white"/>
<path d="M162.212 46.0222H160.055V44.229H159.795C158.885 45.6583 157.404 46.4901 155.688 46.4901C152.335 46.4901 150.23 44.073 150.23 40.7201V32.8972H152.387V40.7201C152.387 42.9553 153.687 44.5408 155.948 44.5408C158.157 44.5408 160.055 42.8513 160.055 40.5383V32.8972H162.212V46.0222Z" fill="white"/>
<path d="M167.753 39.4467C167.753 42.3315 169.806 44.5927 172.639 44.5927C175.446 44.5927 177.5 42.3315 177.5 39.4467C177.5 36.5098 175.446 34.3265 172.639 34.3265C169.806 34.3265 167.753 36.5617 167.753 39.4467ZM179.657 39.4467C179.657 43.5532 176.72 46.542 172.899 46.542C170.794 46.542 169.027 45.6323 168.065 44.073H167.831V52H165.674V32.8972H167.831V34.8984H168.065C169.027 33.313 170.716 32.3773 172.873 32.3773C176.694 32.3773 179.657 35.3402 179.657 39.4467Z" fill="white"/>
</svg>
