<svg width="126" height="36" viewBox="0 0 126 36" fill="none" xmlns="http://www.w3.org/2000/svg">
<path d="M119.683 31.3472C122.128 31.3472 123.86 30.9057 125.151 29.9547V25.6415C123.826 26.5585 122.23 27.1358 119.989 27.1358C116.219 27.1358 114.657 24.2151 114.657 19.5962C114.657 14.7396 116.559 12.2604 120.023 12.2604C122.06 12.2604 124.064 12.9736 125.117 13.6528V9.16981C123.996 8.55849 122.06 8.11698 119.411 8.11698C112.653 8.11698 109.155 12.9736 109.155 19.766C109.189 27.2038 112.619 31.3472 119.683 31.3472ZM86.6378 29.3774V25.0642C85.0076 26.1849 82.2227 27.1698 79.6755 27.1698C75.8038 27.1698 74.3435 25.3358 74.1057 21.6H86.8755V18.8151C86.8755 11.0377 83.4453 8.11698 78.1812 8.11698C71.7284 8.11698 68.6718 13.0415 68.6718 19.8C68.6718 27.5774 72.5095 31.3472 79.234 31.3472C82.5963 31.3472 85.0755 30.4302 86.6378 29.3774ZM38.1737 8.52453V17.3547H31.1095V8.52453H25.8114V30.9057H31.1095V21.566H38.1737V30.9057H43.4718V8.52453H38.1737ZM67.3472 26.6943H65.0038V8.52453H49.585V10.4264C49.585 15.8943 49.2453 22.9585 47.3774 26.6943H45.6793V36H50.5699V30.9057H62.4227V36H67.3133V26.6943H67.3472ZM103.517 30.9057H109.528L101.038 18.8491L108.51 8.52453H103.177L95.7057 18.8491V8.52453H90.4076V30.9057H95.7057V19.9019L103.517 30.9057ZM78.0453 12.2604C80.6604 12.2604 81.4755 14.434 81.4755 17.2528V17.6943H74.1057C74.2416 14.1283 75.5321 12.2604 78.0453 12.2604ZM59.7057 26.6943H52.234C53.6944 23.3321 54.102 17.2189 54.102 13.3472V12.6679H59.7057V26.6943Z" fill="white"/>
<path d="M21.3963 30.9057H15.9963V4.17736H13.585C9.16988 4.17736 6.86044 6.38491 6.86044 9.67925C6.86044 13.4151 8.45667 15.1472 11.751 17.3547L14.468 19.1887L6.65667 30.9057H0.849121L7.87931 20.4453C3.8378 17.5585 1.56233 14.7396 1.56233 9.98491C1.56233 4.04151 5.70573 0 13.551 0H21.3623V30.9057H21.3963Z" fill="white"/>
</svg>
